# xmcd
#
# Track frame offsets:
#	150
#	14624
#	30473
#	49597
#	63200
#	76139
#	93691
#	106393
#	121452
#	135976
#	153808
#	169501
#	182597
#	201527
#
# Disc length: 2950 seconds
#
# Revision: 0
# Processed by: cddbd v1.5.2PL0 Copyright (c) Steve Scherf et al.
# Submitted via: EasyCDDAExtractor 2010.6.0.0
#
DISCID=ad0b840e
DTITLE=Various Artist - Mr Music Country  05 2011
DYEAR=1900
DGENRE=Country
TTITLE0=Dale Watson - How to break your own heart
TTITLE1=Joni Harms - Ay yi yi yi
TTITLE2=Bart Connell - I'm still hanging on
TTITLE3=Bibbi and Snif Jacobsen - Old cowboy song
TTITLE4=Joe Paul Nichols and Jimmy C.Newman - Louisiana man
TTITLE5=Tish Hinojosa - Turned my heart away
TTITLE6=George Hamilton IV - Truck driving man
TTITLE7=The Great Recession Orchestra - Corina Corina
TTITLE8=Ann Brown - Goodbye might not be the thing to do
TTITLE9=Allen Karl - Marion's rose
TTITLE10=Dana Pike - Tonight the heartache's on me
TTITLE11=Bengt Huhta - Pick me up Train
TTITLE12=Suzie Merwine and Butch Paulson - Like the footprints in the sand
TTITLE13=Ben Carbine and The 18 Wheelers - Part time wife
EXTD=
EXTT0=
EXTT1=
EXTT2=
EXTT3=
EXTT4=
EXTT5=
EXTT6=
EXTT7=
EXTT8=
EXTT9=
EXTT10=
EXTT11=
EXTT12=
EXTT13=
PLAYORDER=
